<?xml version="1.0" standalone="no"?>
<!DOCTYPE svg PUBLIC "-//W3C//DTD SVG 20010904//EN"
 "http://www.w3.org/TR/2001/REC-SVG-20010904/DTD/svg10.dtd">
<svg version="1.0" xmlns="http://www.w3.org/2000/svg"
 width="212.000000pt" height="212.000000pt" viewBox="0 0 212.000000 212.000000"
 preserveAspectRatio="xMidYMid meet">
<metadata>
Created by potrace 1.11, written by Peter Selinger 2001-2013
</metadata>
<g transform="translate(0.000000,212.000000) scale(0.100000,-0.100000)"
fill="#000000" stroke="none">
<path d="M899 2096 c-88 -25 -155 -63 -217 -120 -105 -96 -144 -189 -158 -376
-1 -19 -5 -60 -9 -91 -12 -94 30 -213 94 -267 117 -98 286 -138 479 -114 48 7
114 14 147 16 120 9 215 54 300 140 92 93 132 190 133 320 0 129 -43 231 -138
326 -156 156 -424 227 -631 166z m326 -41 c344 -89 501 -404 335 -674 -42 -68
-123 -137 -189 -162 -59 -22 -75 -20 -39 4 126 83 180 233 143 393 -9 38 -30
91 -48 119 -18 28 -41 67 -52 89 -117 227 -458 209 -712 -39 -46 -45 -83 -75
-83 -67 0 31 68 140 117 189 49 48 177 123 209 123 8 0 14 5 14 11 0 7 -12 8
-32 4 -18 -4 -30 -4 -27 -1 4 4 35 13 70 20 78 17 212 13 294 -9z m-376 -19
c-10 -9 -69 -36 -69 -32 0 7 52 35 64 36 5 0 7 -2 5 -4z m256 -161 c52 -10
165 -61 165 -74 0 -7 -8 -7 -22 -2 -79 29 -206 -37 -244 -126 -30 -70 -9 -95
81 -96 62 -1 114 27 144 77 29 47 26 62 -16 79 -43 17 -53 14 -53 -13 0 -12
-17 -26 -52 -43 -29 -14 -54 -24 -56 -22 -2 2 3 17 12 33 31 60 128 85 187 49
28 -17 19 -70 -26 -163 -30 -62 -39 -72 -72 -83 -168 -53 -313 -17 -348 87
-25 71 6 160 80 234 77 75 108 84 220 63z m-258 -45 c-114 -126 -128 -265 -36
-343 55 -47 117 -65 216 -63 45 1 80 -1 77 -6 -3 -5 -24 -18 -47 -30 -56 -30
-162 -30 -227 -1 -129 58 -186 181 -149 318 18 66 124 155 207 174 2 1 -16
-22 -41 -49z m501 -94 c21 -42 16 -154 -9 -222 -104 -282 -451 -363 -646 -151
-45 48 -84 119 -101 179 -8 31 -7 45 9 77 28 58 34 56 33 -11 -1 -33 5 -77 14
-99 33 -86 125 -161 226 -184 94 -22 223 22 297 101 13 14 47 41 74 60 87 58
118 149 81 238 -19 46 -19 49 -3 44 6 -3 18 -17 25 -32z m94 -206 c1 -70 -10
-120 -37 -165 -64 -111 -208 -187 -336 -179 -68 4 -98 18 -49 22 45 3 154 47
204 81 56 39 128 119 155 173 12 24 27 69 33 101 10 50 13 55 21 35 5 -13 9
-43 9 -68z m-775 -212 c51 -47 138 -97 228 -129 57 -21 41 -24 -37 -8 -160 34
-274 127 -294 241 l-6 33 29 -45 c17 -25 52 -66 80 -92z"/>
<path d="M1995 1947 c-78 -94 -124 -178 -152 -282 -8 -30 -13 -165 -6 -182 3
-8 12 -12 21 -8 12 5 13 -2 6 -47 -19 -119 -5 -268 25 -268 5 0 8 51 7 113 0
61 2 126 6 142 20 97 31 131 52 173 30 61 66 203 70 276 1 28 -21 31 -29 4
-39 -132 -101 -316 -112 -328 -26 -29 -31 8 -13 88 32 134 54 187 116 275 19
26 34 49 34 52 0 9 -15 4 -25 -8z"/>
<path d="M337 1927 c-3 -8 -8 -40 -12 -73 -13 -115 -16 -129 -34 -154 -10 -14
-26 -27 -36 -28 -15 -3 -16 2 -10 40 4 23 13 68 21 99 8 31 14 64 14 73 0 22
-30 20 -31 -1 -1 -22 -4 -36 -17 -88 -6 -22 -13 -58 -17 -79 -7 -47 -13 -56
-25 -36 -13 20 -12 98 1 160 11 51 7 72 -10 54 -15 -15 -35 -157 -27 -197 4
-20 16 -45 27 -56 13 -12 18 -27 16 -42 -3 -13 -13 -64 -22 -114 -29 -152 -22
-325 14 -325 30 0 67 189 40 206 -10 6 -11 187 -2 237 3 16 14 28 27 31 28 7
75 53 88 86 9 22 21 125 22 189 1 27 -19 40 -27 18z"/>
<path d="M90 955 l0 -45 55 0 55 0 0 -185 0 -185 60 0 60 0 0 185 0 185 55 0
55 0 0 45 0 45 -170 0 -170 0 0 -45z"/>
<path d="M490 840 c0 -175 9 -214 56 -255 68 -58 220 -59 287 -1 48 42 57 80
57 256 l0 160 -60 0 -60 0 0 -145 c0 -165 -11 -210 -54 -221 -40 -10 -74 4
-91 36 -8 16 -15 33 -14 37 1 4 1 72 0 151 l-1 142 -60 0 -60 0 0 -160z"/>
<path d="M970 770 l0 -230 60 0 59 0 3 92 3 93 80 0 80 0 5 35 c3 19 4 38 2
43 -2 4 -41 7 -88 7 l-84 0 0 50 0 50 38 1 c20 0 61 1 90 1 l52 0 0 44 0 44
-150 0 -150 0 0 -230z"/>
<path d="M1290 955 l0 -45 55 0 55 0 0 -185 0 -185 60 0 60 0 0 185 0 185 55
0 55 0 0 45 0 45 -170 0 -170 0 0 -45z"/>
<path d="M1785 983 c-79 -29 -111 -93 -85 -170 12 -33 55 -61 138 -88 61 -20
80 -48 53 -79 -14 -15 -26 -17 -81 -13 -36 3 -75 9 -86 12 -20 6 -22 2 -25
-39 -5 -54 -4 -55 96 -63 150 -12 230 38 230 144 0 69 -30 101 -125 132 -78
25 -101 48 -71 75 20 18 104 22 144 7 24 -9 25 -8 29 35 2 25 -1 48 -5 51 -5
3 -43 7 -85 9 -57 3 -90 0 -127 -13z"/>
<path d="M307 434 c-4 -4 -23 -10 -44 -13 -46 -8 -57 -31 -14 -31 17 0 31 -3
31 -7 0 -5 -11 -39 -24 -78 -13 -38 -33 -112 -46 -164 -19 -78 -20 -95 -9
-102 8 -4 18 -4 23 1 5 5 23 66 41 137 18 70 39 147 46 169 13 41 14 41 44 31
48 -17 99 -54 119 -88 38 -64 -8 -139 -114 -187 -96 -44 -134 -83 -96 -98 17
-7 158 65 198 101 64 56 82 119 54 186 -20 47 -61 83 -131 116 -33 15 -63 29
-66 30 -3 2 -8 0 -12 -3z"/>
<path d="M1011 394 c-11 -14 -32 -62 -46 -107 -15 -45 -29 -89 -32 -97 -3 -10
-14 3 -30 35 -14 28 -35 60 -46 73 -22 24 -49 30 -46 10 1 -7 -7 -34 -19 -60
-40 -89 -50 -163 -22 -163 15 0 18 7 48 115 l18 65 28 -81 c35 -100 55 -129
84 -120 17 6 27 27 47 94 14 48 37 120 52 160 14 39 23 79 19 87 -8 23 -32 18
-55 -11z"/>
<path d="M1835 384 c-64 -33 -150 -153 -162 -227 -17 -110 152 -183 234 -102
17 17 26 60 18 84 -14 45 -104 58 -128 19 -14 -21 9 -51 35 -45 11 3 18 0 18
-9 0 -15 -9 -18 -54 -15 -36 2 -66 27 -66 55 0 34 54 138 93 180 29 30 42 37
62 34 34 -7 54 17 26 31 -26 15 -40 14 -76 -5z"/>
<path d="M1547 348 c-15 -20 -34 -71 -47 -125 -12 -51 -28 -100 -35 -109 -11
-16 -13 -16 -28 7 -8 13 -27 62 -42 109 -15 47 -28 91 -31 98 -2 8 -11 12 -20
10 -11 -2 -23 -31 -39 -93 -13 -50 -31 -107 -40 -129 -18 -42 -14 -66 9 -66
21 0 44 38 66 107 10 32 19 50 19 41 2 -34 33 -113 54 -136 25 -27 61 -28 86
-3 20 20 114 297 106 312 -12 18 -34 9 -58 -23z"/>
<path d="M1167 322 c-20 -22 -33 -80 -36 -165 -2 -54 1 -68 14 -73 9 -4 18 -5
20 -2 2 2 7 46 10 97 3 52 11 106 19 122 20 40 3 54 -27 21z"/>
<path d="M662 273 c-27 -63 -52 -151 -52 -180 0 -22 24 -42 36 -30 10 10 64
240 58 248 -11 18 -22 8 -42 -38z"/>
</g>
</svg>
